<?xml version="1.0" standalone="no"?>
<!DOCTYPE svg PUBLIC "-//W3C//DTD SVG 20010904//EN"
 "http://www.w3.org/TR/2001/REC-SVG-20010904/DTD/svg10.dtd">
<svg version="1.0" xmlns="http://www.w3.org/2000/svg"
 width="512.000000pt" height="512.000000pt" viewBox="0 0 512.000000 512.000000"
 preserveAspectRatio="xMidYMid meet">
<metadata>
Created by potrace 1.14, written by Peter Selinger 2001-2017
</metadata>
<g transform="translate(0.000000,512.000000) scale(0.100000,-0.100000)"
fill="#000000" stroke="none">
<path d="M0 3120 l0 -1710 600 0 600 0 1 -52 c0 -29 0 -281 0 -561 0 -410 3
-506 13 -500 7 5 151 94 320 198 169 105 321 199 339 210 110 67 200 122 647
399 l494 306 1053 0 1053 0 0 1710 0 1710 -2560 0 -2560 0 0 -1710z m4820 0
l0 -1410 -945 0 -945 0 -192 -119 c-106 -65 -290 -178 -408 -251 -118 -74
-260 -161 -315 -195 -55 -34 -120 -74 -145 -90 -33 -21 -291 -179 -362 -222
-4 -2 -8 180 -7 404 0 224 0 423 -1 441 l0 32 -600 0 -600 0 0 1410 0 1410
2260 0 2260 0 0 -1410z"/>
<path d="M1510 3469 l0 -149 28 -1 c36 0 1986 0 2035 0 l37 1 0 150 0 149
-1050 0 -1050 -1 0 -149z"/>
<path d="M1510 2850 l0 -150 1050 0 1050 0 0 150 0 150 -1050 0 -1050 0 0
-150z"/>
</g>
</svg>
